<svg xmlns="http://www.w3.org/2000/svg" width="30" height="32" viewBox="0 0 90 96">
<defs><filter id="f1" filterUnits="userSpaceOnUse" x="-270" y="-288" width="720" height="768"><feGaussianBlur stdDeviation="1.8"/></filter><linearGradient id="l2" gradientUnits="userSpaceOnUse" x1="16" y1="0" x2="24" y2="0"><stop offset="0" stop-color="#DDE9E7"/><stop offset="0.5" stop-color="#9FC7C6"/><stop offset="1" stop-color="#6DA09B"/></linearGradient><radialGradient id="r3" gradientUnits="userSpaceOnUse" cx="18" cy="10" r="8"><stop offset="0" stop-color="#FFFFFF"/><stop offset="0.5" stop-color="#D0E0DD"/><stop offset="1" stop-color="#7CAEAB"/></radialGradient><linearGradient id="l4" gradientUnits="userSpaceOnUse" x1="0" y1="16" x2="0" y2="66"><stop offset="0" stop-color="#FFFBF0"/><stop offset="1" stop-color="#E8DEC8"/></linearGradient><linearGradient id="l5" gradientUnits="userSpaceOnUse" x1="0" y1="16" x2="0" y2="66"><stop offset="0" stop-color="#528079"/><stop offset="1" stop-color="#3F5A55"/></linearGradient><linearGradient id="l6" gradientUnits="userSpaceOnUse" x1="0" y1="16" x2="0" y2="66"><stop offset="0" stop-color="#528079"/><stop offset="1" stop-color="#3F5A55"/></linearGradient><linearGradient id="l7" gradientUnits="userSpaceOnUse" x1="0" y1="16" x2="0" y2="66"><stop offset="0" stop-color="#FFFBF0"/><stop offset="1" stop-color="#E8DEC8"/></linearGradient><linearGradient id="l8" gradientUnits="userSpaceOnUse" x1="0" y1="16" x2="0" y2="66"><stop offset="0" stop-color="#FFFBF0"/><stop offset="1" stop-color="#E8DEC8"/></linearGradient><linearGradient id="l9" gradientUnits="userSpaceOnUse" x1="0" y1="16" x2="0" y2="66"><stop offset="0" stop-color="#528079"/><stop offset="1" stop-color="#3F5A55"/></linearGradient><clipPath id="c10"><path d="M23 16 L25.62 17.4 L28.25 18.76 L30.88 20 L33.5 21.09 L36.12 21.98 L38.75 22.65 L41.38 23.07 L44 23.23 L46.62 23.12 L49.25 22.77 L51.88 22.19 L54.5 21.42 L57.12 20.49 L59.75 19.45 L62.38 18.36 L65 17.27 L67.62 16.24 L70.25 15.31 L72.88 14.53 L75.5 13.95 L78.12 13.6 L80.75 13.5 L83.38 13.66 L86 14.07 L86 64.07 L83.38 63.66 L80.75 63.5 L78.12 63.6 L75.5 63.95 L72.88 64.53 L70.25 65.31 L67.62 66.24 L65 67.27 L62.38 68.36 L59.75 69.45 L57.13 70.49 L54.5 71.42 L51.88 72.19 L49.25 72.77 L46.62 73.12 L44 73.23 L41.38 73.07 L38.75 72.65 L36.12 71.98 L33.5 71.09 L30.88 70 L28.25 68.76 L25.62 67.4 L23 66 Z" clip-rule="nonzero"/></clipPath><filter id="f11" filterUnits="userSpaceOnUse" x="-270" y="-288" width="720" height="768"><feGaussianBlur stdDeviation="1.2"/></filter><filter id="f12" filterUnits="userSpaceOnUse" x="-270" y="-288" width="720" height="768"><feGaussianBlur stdDeviation="1.2"/></filter><filter id="f13" filterUnits="userSpaceOnUse" x="-270" y="-288" width="720" height="768"><feGaussianBlur stdDeviation="3"/></filter></defs>
<g transform="rotate(-14 45 48) translate(45 48) scale(0.9) translate(-45 -48)">
<g transform="translate(3 4)" filter="url(#f1)" fill="#032A2D" fill-opacity="0.35"><path d="M23 16 L25.62 17.4 L28.25 18.76 L30.88 20 L33.5 21.09 L36.12 21.98 L38.75 22.65 L41.38 23.07 L44 23.23 L46.62 23.12 L49.25 22.77 L51.88 22.19 L54.5 21.42 L57.12 20.49 L59.75 19.45 L62.38 18.36 L65 17.27 L67.62 16.24 L70.25 15.31 L72.88 14.53 L75.5 13.95 L78.12 13.6 L80.75 13.5 L83.38 13.66 L86 14.07 L86 64.07 L83.38 63.66 L80.75 63.5 L78.12 63.6 L75.5 63.95 L72.88 64.53 L70.25 65.31 L67.62 66.24 L65 67.27 L62.38 68.36 L59.75 69.45 L57.13 70.49 L54.5 71.42 L51.88 72.19 L49.25 72.77 L46.62 73.12 L44 73.23 L41.38 73.07 L38.75 72.65 L36.12 71.98 L33.5 71.09 L30.88 70 L28.25 68.76 L25.62 67.4 L23 66 Z"/><path d="M16 20 L16.08 19.22 L16.3 18.47 L16.67 17.78 L17.17 17.17 L17.78 16.67 L18.47 16.3 L19.22 16.08 L20 16 L20 16 L20.78 16.08 L21.53 16.3 L22.22 16.67 L22.83 17.17 L23.33 17.78 L23.7 18.47 L23.92 19.22 L24 20 L24 88 L23.92 88.78 L23.7 89.53 L23.33 90.22 L22.83 90.83 L22.22 91.33 L21.53 91.7 L20.78 91.92 L20 92 L20 92 L19.22 91.92 L18.47 91.7 L17.78 91.33 L17.17 90.83 L16.67 90.22 L16.3 89.53 L16.08 88.78 L16 88 Z"/></g>
<path d="M23 16 L25.62 17.4 L28.25 18.76 L30.88 20 L33.5 21.09 L36.12 21.98 L38.75 22.65 L41.38 23.07 L44 23.23 L46.62 23.12 L49.25 22.77 L51.88 22.19 L54.5 21.42 L57.12 20.49 L59.75 19.45 L62.38 18.36 L65 17.27 L67.62 16.24 L70.25 15.31 L72.88 14.53 L75.5 13.95 L78.12 13.6 L80.75 13.5 L83.38 13.66 L86 14.07 L86 64.07 L83.38 63.66 L80.75 63.5 L78.12 63.6 L75.5 63.95 L72.88 64.53 L70.25 65.31 L67.62 66.24 L65 67.27 L62.38 68.36 L59.75 69.45 L57.13 70.49 L54.5 71.42 L51.88 72.19 L49.25 72.77 L46.62 73.12 L44 73.23 L41.38 73.07 L38.75 72.65 L36.12 71.98 L33.5 71.09 L30.88 70 L28.25 68.76 L25.62 67.4 L23 66 Z" fill="#0E2D2F" stroke="#0E2D2F" stroke-width="5" stroke-linejoin="round"/>
<path d="M16 20 L16.08 19.22 L16.3 18.47 L16.67 17.78 L17.17 17.17 L17.78 16.67 L18.47 16.3 L19.22 16.08 L20 16 L20 16 L20.78 16.08 L21.53 16.3 L22.22 16.67 L22.83 17.17 L23.33 17.78 L23.7 18.47 L23.92 19.22 L24 20 L24 88 L23.92 88.78 L23.7 89.53 L23.33 90.22 L22.83 90.83 L22.22 91.33 L21.53 91.7 L20.78 91.92 L20 92 L20 92 L19.22 91.92 L18.47 91.7 L17.78 91.33 L17.17 90.83 L16.67 90.22 L16.3 89.53 L16.08 88.78 L16 88 Z" fill="#0E2D2F" stroke="#0E2D2F" stroke-width="5" stroke-linejoin="round"/>
<path d="M13.5 13A6.5 6.5 0 1 0 26.5 13A6.5 6.5 0 1 0 13.5 13Z" fill="#0E2D2F" stroke="#0E2D2F" stroke-width="5" stroke-linejoin="round"/>
<path d="M16 20 L16.08 19.22 L16.3 18.47 L16.67 17.78 L17.17 17.17 L17.78 16.67 L18.47 16.3 L19.22 16.08 L20 16 L20 16 L20.78 16.08 L21.53 16.3 L22.22 16.67 L22.83 17.17 L23.33 17.78 L23.7 18.47 L23.92 19.22 L24 20 L24 88 L23.92 88.78 L23.7 89.53 L23.33 90.22 L22.83 90.83 L22.22 91.33 L21.53 91.7 L20.78 91.92 L20 92 L20 92 L19.22 91.92 L18.47 91.7 L17.78 91.33 L17.17 90.83 L16.67 90.22 L16.3 89.53 L16.08 88.78 L16 88 Z" fill="url(#l2)"/>
<path d="M13.5 13A6.5 6.5 0 1 0 26.5 13A6.5 6.5 0 1 0 13.5 13Z" fill="url(#r3)"/>
<path d="M23 16 L25.62 17.4 L28.25 18.76 L30.88 20 L33.5 21.09 L36.12 21.98 L38.75 22.65 L41.38 23.07 L44 23.23 L46.62 23.12 L49.25 22.77 L51.88 22.19 L54.5 21.42 L57.12 20.49 L59.75 19.45 L62.38 18.36 L65 17.27 L67.62 16.24 L70.25 15.31 L72.88 14.53 L75.5 13.95 L78.12 13.6 L80.75 13.5 L83.38 13.66 L86 14.07 L86 64.07 L83.38 63.66 L80.75 63.5 L78.12 63.6 L75.5 63.95 L72.88 64.53 L70.25 65.31 L67.62 66.24 L65 67.27 L62.38 68.36 L59.75 69.45 L57.13 70.49 L54.5 71.42 L51.88 72.19 L49.25 72.77 L46.62 73.12 L44 73.23 L41.38 73.07 L38.75 72.65 L36.12 71.98 L33.5 71.09 L30.88 70 L28.25 68.76 L25.62 67.4 L23 66 Z" fill="#F5EEDD"/>
<path d="M23 16 L25.62 17.4 L28.25 18.76 L30.88 20 L33.5 21.09 L36.12 21.98 L38.75 22.65 L41.38 23.07 L44 23.23 L44 48.23 L41.38 48.07 L38.75 47.65 L36.12 46.98 L33.5 46.09 L30.88 45 L28.25 43.76 L25.62 42.4 L23 41 Z" fill="url(#l4)"/>
<path d="M23 41 L25.62 42.4 L28.25 43.76 L30.88 45 L33.5 46.09 L36.12 46.98 L38.75 47.65 L41.38 48.07 L44 48.23 L44 73.23 L41.38 73.07 L38.75 72.65 L36.12 71.98 L33.5 71.09 L30.88 70 L28.25 68.76 L25.62 67.4 L23 66 Z" fill="url(#l5)"/>
<path d="M44 23.23 L46.62 23.12 L49.25 22.77 L51.88 22.19 L54.5 21.42 L57.12 20.49 L59.75 19.45 L62.38 18.36 L65 17.27 L65 42.27 L62.38 43.36 L59.75 44.45 L57.12 45.49 L54.5 46.42 L51.88 47.19 L49.25 47.77 L46.62 48.12 L44 48.23 Z" fill="url(#l6)"/>
<path d="M44 48.23 L46.62 48.12 L49.25 47.77 L51.88 47.19 L54.5 46.42 L57.12 45.49 L59.75 44.45 L62.38 43.36 L65 42.27 L65 67.27 L62.38 68.36 L59.75 69.45 L57.12 70.49 L54.5 71.42 L51.88 72.19 L49.25 72.77 L46.62 73.12 L44 73.23 Z" fill="url(#l7)"/>
<path d="M65 17.27 L67.62 16.24 L70.25 15.31 L72.88 14.53 L75.5 13.95 L78.12 13.6 L80.75 13.5 L83.38 13.66 L86 14.07 L86 39.07 L83.38 38.66 L80.75 38.5 L78.12 38.6 L75.5 38.95 L72.88 39.53 L70.25 40.31 L67.62 41.24 L65 42.27 Z" fill="url(#l8)"/>
<path d="M65 42.27 L67.62 41.24 L70.25 40.31 L72.88 39.53 L75.5 38.95 L78.12 38.6 L80.75 38.5 L83.38 38.66 L86 39.07 L86 64.07 L83.38 63.66 L80.75 63.5 L78.12 63.6 L75.5 63.95 L72.88 64.53 L70.25 65.31 L67.62 66.24 L65 67.27 Z" fill="url(#l9)"/>
<g clip-path="url(#c10)"><path d="M23 20 L25.62 21.4 L28.25 22.76 L30.88 24 L33.5 25.09 L36.12 25.98 L38.75 26.65 L41.38 27.07 L44 27.23 L46.62 27.12 L49.25 26.77 L51.88 26.19 L54.5 25.42 L57.12 24.49 L59.75 23.45 L62.38 22.36 L65 21.27 L67.62 20.24 L70.25 19.31 L72.88 18.53 L75.5 17.95 L78.12 17.6 L80.75 17.5 L83.38 17.66 L86 18.07" fill="none" stroke="#FFFFFF" stroke-opacity="0.55" stroke-width="5" filter="url(#f11)"/><path d="M23 45 L25.62 46.4 L28.25 47.76 L30.88 49 L33.5 50.09 L36.12 50.98 L38.75 51.65 L41.38 52.07 L44 52.23 L46.62 52.12 L49.25 51.77 L51.88 51.19 L54.5 50.42 L57.12 49.49 L59.75 48.45 L62.38 47.36 L65 46.27 L67.62 45.24 L70.25 44.31 L72.88 43.53 L75.5 42.95 L78.12 42.6 L80.75 42.5 L83.38 42.66 L86 43.07" fill="none" stroke="#FFFFFF" stroke-opacity="0.35" stroke-width="4" filter="url(#f12)"/><path d="M49.46 22.73 L49.46 72.73" fill="none" stroke="#183537" stroke-opacity="0.25" stroke-width="9" filter="url(#f13)"/></g>
</g>
</svg>
