<svg xmlns="http://www.w3.org/2000/svg" width="39" height="39" viewBox="0 0 117 117">
<defs><filter id="f1" filterUnits="userSpaceOnUse" x="-351" y="-351" width="936" height="936"><feGaussianBlur stdDeviation="1.7"/></filter><linearGradient id="l2" gradientUnits="userSpaceOnUse" x1="0" y1="55.1" x2="0" y2="109.6"><stop offset="0" stop-color="#E8961A"/><stop offset="0.55" stop-color="#E08A04"/><stop offset="0.8" stop-color="#D07300"/><stop offset="1" stop-color="#BC5600"/></linearGradient><linearGradient id="l3" gradientUnits="userSpaceOnUse" x1="0" y1="6.6" x2="0" y2="103.6"><stop offset="0" stop-color="#D9B83A"/><stop offset="0.2" stop-color="#B06A12"/><stop offset="0.5" stop-color="#8E400E"/><stop offset="1" stop-color="#84400E"/></linearGradient><linearGradient id="l4" gradientUnits="userSpaceOnUse" x1="0" y1="6.6" x2="0" y2="103.6"><stop offset="0" stop-color="#FFF200"/><stop offset="0.12" stop-color="#FFEF00"/><stop offset="0.4" stop-color="#FDE400"/><stop offset="0.62" stop-color="#FBDC00"/><stop offset="0.82" stop-color="#F7CF00"/><stop offset="1" stop-color="#F4C200"/></linearGradient><clipPath id="c5"><path d="M10 55.1A48.5 48.5 0 1 0 107 55.1A48.5 48.5 0 1 0 10 55.1Z" clip-rule="nonzero"/></clipPath><filter id="f6" filterUnits="userSpaceOnUse" x="-351" y="-351" width="936" height="936"><feGaussianBlur stdDeviation="1.6"/></filter><filter id="f7" filterUnits="userSpaceOnUse" x="-351" y="-351" width="936" height="936"><feGaussianBlur stdDeviation="0.35"/></filter><filter id="f8" filterUnits="userSpaceOnUse" x="-351" y="-351" width="936" height="936"><feGaussianBlur stdDeviation="0.4"/></filter><filter id="f9" filterUnits="userSpaceOnUse" x="-351" y="-351" width="936" height="936"><feGaussianBlur stdDeviation="0.45"/></filter><linearGradient id="l10" gradientUnits="userSpaceOnUse" x1="0" y1="19.7" x2="0" y2="90.5"><stop offset="0" stop-color="#C85600"/><stop offset="0.18" stop-color="#B23C00"/><stop offset="0.55" stop-color="#CC6200"/><stop offset="1" stop-color="#D45B05"/></linearGradient><linearGradient id="l11" gradientUnits="userSpaceOnUse" x1="0" y1="25.03" x2="0" y2="88.56"><stop offset="0" stop-color="#D37200"/><stop offset="0.1" stop-color="#EAA400"/><stop offset="0.3" stop-color="#F2B400"/><stop offset="0.62" stop-color="#ECA200"/><stop offset="1" stop-color="#E28E00"/></linearGradient><clipPath id="c12"><path d="M26.73 56.8A31.77 31.77 0 1 0 90.27 56.8A31.77 31.77 0 1 0 26.73 56.8Z" clip-rule="nonzero"/></clipPath><filter id="f13" filterUnits="userSpaceOnUse" x="-351" y="-351" width="936" height="936"><feGaussianBlur stdDeviation="1.1"/></filter><linearGradient id="l14" gradientUnits="userSpaceOnUse" x1="0" y1="26.73" x2="0" y2="80.08"><stop offset="0" stop-color="#EE9A10"/><stop offset="0.5" stop-color="#DC6E00"/><stop offset="1" stop-color="#D06000"/></linearGradient><linearGradient id="l15" gradientUnits="userSpaceOnUse" x1="0" y1="26.73" x2="0" y2="80.08"><stop offset="0" stop-color="#FFF45A"/><stop offset="0.18" stop-color="#FFF000"/><stop offset="0.55" stop-color="#FCDF00"/><stop offset="1" stop-color="#F6CC00"/></linearGradient><clipPath id="c16"><path d="M54.3 33.13 L55.7 31.57 L57.1 30.64 L58.5 30.33 L59.9 30.64 L61.3 31.57 L62.7 33.13 L63.99 34.86 L65.46 36.63 L67.07 38.21 L68.81 39.59 L70.69 40.78 L72.71 41.77 L74.87 42.57 L77.19 43.3 L79.12 44.1 L80.44 45.09 L81.15 46.28 L81.26 47.66 L80.77 49.24 L79.67 51.01 L78.38 52.74 L77.1 54.65 L76.05 56.63 L75.23 58.69 L74.65 60.83 L74.3 63.05 L74.18 65.35 L74.18 67.34 L73.99 69.42 L73.44 70.99 L72.51 72.06 L71.21 72.62 L69.54 72.68 L67.5 72.23 L65.18 71.5 L62.95 70.92 L60.73 70.57 L58.5 70.45 L56.27 70.57 L54.05 70.92 L51.82 71.5 L49.5 72.23 L47.46 72.68 L45.79 72.62 L44.49 72.06 L43.56 70.99 L43.01 69.42 L42.82 67.34 L42.82 65.35 L42.7 63.05 L42.35 60.83 L41.77 58.69 L40.95 56.63 L39.9 54.65 L38.62 52.74 L37.33 51.01 L36.23 49.24 L35.74 47.66 L35.85 46.28 L36.56 45.09 L37.88 44.1 L39.81 43.3 L42.13 42.57 L44.29 41.77 L46.31 40.78 L48.19 39.59 L49.93 38.21 L51.54 36.63 L53.01 34.86 Z" clip-rule="nonzero"/></clipPath><filter id="f17" filterUnits="userSpaceOnUse" x="-351" y="-351" width="936" height="936"><feGaussianBlur stdDeviation="0.5"/></filter><filter id="f18" filterUnits="userSpaceOnUse" x="-351" y="-351" width="936" height="936"><feGaussianBlur stdDeviation="0.8"/></filter></defs>
<path d="M10 62.7A48.5 48.5 0 1 0 107 62.7A48.5 48.5 0 1 0 10 62.7Z" fill="#132223" fill-opacity="0.34" filter="url(#f1)"/>
<path d="M10 61.1A48.5 48.5 0 1 0 107 61.1A48.5 48.5 0 1 0 10 61.1Z" fill="url(#l2)" stroke="#804618" stroke-width="1.5"/>
<path d="M10 55.1A48.5 48.5 0 1 0 107 55.1A48.5 48.5 0 1 0 10 55.1Z" fill="none" stroke="url(#l3)" stroke-width="1.9"/>
<path d="M10 55.1A48.5 48.5 0 1 0 107 55.1A48.5 48.5 0 1 0 10 55.1Z" fill="url(#l4)"/>
<g clip-path="url(#c5)"><path d="M13 55.1A48.5 48.5 0 1 0 110 55.1A48.5 48.5 0 1 0 13 55.1Z" fill="none" stroke="#E9B000" stroke-opacity="0.55" stroke-width="5" filter="url(#f6)"/><path d="M95.69 26.04A47.2 47.2 0 0 1 95.69 84.16" fill="none" stroke="#FFFD30" stroke-width="2" stroke-linecap="round" filter="url(#f7)"/><path d="M21.23 25.98A47.3 47.3 0 0 1 95.77 25.98" fill="none" stroke="#FFFBA0" stroke-width="2" stroke-linecap="round" filter="url(#f8)"/><path d="M89.41 89.43A46.2 46.2 0 0 1 27.59 89.43" fill="none" stroke="#FBEE3B" stroke-width="2" stroke-linecap="round" filter="url(#f9)"/></g>
<path d="M24.57 42.75A36.11 36.11 0 0 1 92.43 42.75" fill="none" stroke="#FFFB40" stroke-width="1.3" stroke-linecap="round"/>
<path d="M23.09 55.1A35.41 35.41 0 1 0 93.91 55.1A35.41 35.41 0 1 0 23.09 55.1Z" fill="url(#l10)"/>
<path d="M87.19 77.51A36.41 36.41 0 0 1 29.81 77.51" fill="none" stroke="#FFF97A" stroke-width="1.9" stroke-linecap="round"/>
<path d="M26.73 56.8A31.77 31.77 0 1 0 90.27 56.8A31.77 31.77 0 1 0 26.73 56.8Z" fill="url(#l11)"/>
<g clip-path="url(#c12)"><path d="M24.13 60A34.37 34.37 0 1 0 92.87 60A34.37 34.37 0 1 0 24.13 60Z" fill="none" stroke="#B84600" stroke-opacity="0.75" stroke-width="4.2" filter="url(#f13)"/></g>
<path d="M54.3 33.13 L55.7 31.57 L57.1 30.64 L58.5 30.33 L59.9 30.64 L61.3 31.57 L62.7 33.13 L63.99 34.86 L65.46 36.63 L67.07 38.21 L68.81 39.59 L70.69 40.78 L72.71 41.77 L74.87 42.57 L77.19 43.3 L79.12 44.1 L80.44 45.09 L81.15 46.28 L81.26 47.66 L80.77 49.24 L79.67 51.01 L78.38 52.74 L77.1 54.65 L76.05 56.63 L75.23 58.69 L74.65 60.83 L74.3 63.05 L74.18 65.35 L74.18 67.34 L73.99 69.42 L73.44 70.99 L72.51 72.06 L71.21 72.62 L69.54 72.68 L67.5 72.23 L65.18 71.5 L62.95 70.92 L60.73 70.57 L58.5 70.45 L56.27 70.57 L54.05 70.92 L51.82 71.5 L49.5 72.23 L47.46 72.68 L45.79 72.62 L44.49 72.06 L43.56 70.99 L43.01 69.42 L42.82 67.34 L42.82 65.35 L42.7 63.05 L42.35 60.83 L41.77 58.69 L40.95 56.63 L39.9 54.65 L38.62 52.74 L37.33 51.01 L36.23 49.24 L35.74 47.66 L35.85 46.28 L36.56 45.09 L37.88 44.1 L39.81 43.3 L42.13 42.57 L44.29 41.77 L46.31 40.78 L48.19 39.59 L49.93 38.21 L51.54 36.63 L53.01 34.86 Z" fill="#B04400" stroke="#B04400" stroke-width="2.8" stroke-linejoin="round" transform="translate(0 3.6)"/>
<path d="M54.3 33.13 L55.7 31.57 L57.1 30.64 L58.5 30.33 L59.9 30.64 L61.3 31.57 L62.7 33.13 L63.99 34.86 L65.46 36.63 L67.07 38.21 L68.81 39.59 L70.69 40.78 L72.71 41.77 L74.87 42.57 L77.19 43.3 L79.12 44.1 L80.44 45.09 L81.15 46.28 L81.26 47.66 L80.77 49.24 L79.67 51.01 L78.38 52.74 L77.1 54.65 L76.05 56.63 L75.23 58.69 L74.65 60.83 L74.3 63.05 L74.18 65.35 L74.18 67.34 L73.99 69.42 L73.44 70.99 L72.51 72.06 L71.21 72.62 L69.54 72.68 L67.5 72.23 L65.18 71.5 L62.95 70.92 L60.73 70.57 L58.5 70.45 L56.27 70.57 L54.05 70.92 L51.82 71.5 L49.5 72.23 L47.46 72.68 L45.79 72.62 L44.49 72.06 L43.56 70.99 L43.01 69.42 L42.82 67.34 L42.82 65.35 L42.7 63.05 L42.35 60.83 L41.77 58.69 L40.95 56.63 L39.9 54.65 L38.62 52.74 L37.33 51.01 L36.23 49.24 L35.74 47.66 L35.85 46.28 L36.56 45.09 L37.88 44.1 L39.81 43.3 L42.13 42.57 L44.29 41.77 L46.31 40.78 L48.19 39.59 L49.93 38.21 L51.54 36.63 L53.01 34.86 Z" fill="#B04400" stroke="#B04400" stroke-width="2.8" stroke-linejoin="round" transform="translate(0 3)"/>
<path d="M54.3 33.13 L55.7 31.57 L57.1 30.64 L58.5 30.33 L59.9 30.64 L61.3 31.57 L62.7 33.13 L63.99 34.86 L65.46 36.63 L67.07 38.21 L68.81 39.59 L70.69 40.78 L72.71 41.77 L74.87 42.57 L77.19 43.3 L79.12 44.1 L80.44 45.09 L81.15 46.28 L81.26 47.66 L80.77 49.24 L79.67 51.01 L78.38 52.74 L77.1 54.65 L76.05 56.63 L75.23 58.69 L74.65 60.83 L74.3 63.05 L74.18 65.35 L74.18 67.34 L73.99 69.42 L73.44 70.99 L72.51 72.06 L71.21 72.62 L69.54 72.68 L67.5 72.23 L65.18 71.5 L62.95 70.92 L60.73 70.57 L58.5 70.45 L56.27 70.57 L54.05 70.92 L51.82 71.5 L49.5 72.23 L47.46 72.68 L45.79 72.62 L44.49 72.06 L43.56 70.99 L43.01 69.42 L42.82 67.34 L42.82 65.35 L42.7 63.05 L42.35 60.83 L41.77 58.69 L40.95 56.63 L39.9 54.65 L38.62 52.74 L37.33 51.01 L36.23 49.24 L35.74 47.66 L35.85 46.28 L36.56 45.09 L37.88 44.1 L39.81 43.3 L42.13 42.57 L44.29 41.77 L46.31 40.78 L48.19 39.59 L49.93 38.21 L51.54 36.63 L53.01 34.86 Z" fill="#B04400" stroke="#B04400" stroke-width="2.8" stroke-linejoin="round" transform="translate(0 2.4)"/>
<path d="M54.3 33.13 L55.7 31.57 L57.1 30.64 L58.5 30.33 L59.9 30.64 L61.3 31.57 L62.7 33.13 L63.99 34.86 L65.46 36.63 L67.07 38.21 L68.81 39.59 L70.69 40.78 L72.71 41.77 L74.87 42.57 L77.19 43.3 L79.12 44.1 L80.44 45.09 L81.15 46.28 L81.26 47.66 L80.77 49.24 L79.67 51.01 L78.38 52.74 L77.1 54.65 L76.05 56.63 L75.23 58.69 L74.65 60.83 L74.3 63.05 L74.18 65.35 L74.18 67.34 L73.99 69.42 L73.44 70.99 L72.51 72.06 L71.21 72.62 L69.54 72.68 L67.5 72.23 L65.18 71.5 L62.95 70.92 L60.73 70.57 L58.5 70.45 L56.27 70.57 L54.05 70.92 L51.82 71.5 L49.5 72.23 L47.46 72.68 L45.79 72.62 L44.49 72.06 L43.56 70.99 L43.01 69.42 L42.82 67.34 L42.82 65.35 L42.7 63.05 L42.35 60.83 L41.77 58.69 L40.95 56.63 L39.9 54.65 L38.62 52.74 L37.33 51.01 L36.23 49.24 L35.74 47.66 L35.85 46.28 L36.56 45.09 L37.88 44.1 L39.81 43.3 L42.13 42.57 L44.29 41.77 L46.31 40.78 L48.19 39.59 L49.93 38.21 L51.54 36.63 L53.01 34.86 Z" fill="#B04400" stroke="#B04400" stroke-width="2.8" stroke-linejoin="round" transform="translate(0 1.8)"/>
<path d="M54.3 33.13 L55.7 31.57 L57.1 30.64 L58.5 30.33 L59.9 30.64 L61.3 31.57 L62.7 33.13 L63.99 34.86 L65.46 36.63 L67.07 38.21 L68.81 39.59 L70.69 40.78 L72.71 41.77 L74.87 42.57 L77.19 43.3 L79.12 44.1 L80.44 45.09 L81.15 46.28 L81.26 47.66 L80.77 49.24 L79.67 51.01 L78.38 52.74 L77.1 54.65 L76.05 56.63 L75.23 58.69 L74.65 60.83 L74.3 63.05 L74.18 65.35 L74.18 67.34 L73.99 69.42 L73.44 70.99 L72.51 72.06 L71.21 72.62 L69.54 72.68 L67.5 72.23 L65.18 71.5 L62.95 70.92 L60.73 70.57 L58.5 70.45 L56.27 70.57 L54.05 70.92 L51.82 71.5 L49.5 72.23 L47.46 72.68 L45.79 72.62 L44.49 72.06 L43.56 70.99 L43.01 69.42 L42.82 67.34 L42.82 65.35 L42.7 63.05 L42.35 60.83 L41.77 58.69 L40.95 56.63 L39.9 54.65 L38.62 52.74 L37.33 51.01 L36.23 49.24 L35.74 47.66 L35.85 46.28 L36.56 45.09 L37.88 44.1 L39.81 43.3 L42.13 42.57 L44.29 41.77 L46.31 40.78 L48.19 39.59 L49.93 38.21 L51.54 36.63 L53.01 34.86 Z" fill="#B04400" stroke="#B04400" stroke-width="2.8" stroke-linejoin="round" transform="translate(0 1.2)"/>
<path d="M54.3 33.13 L55.7 31.57 L57.1 30.64 L58.5 30.33 L59.9 30.64 L61.3 31.57 L62.7 33.13 L63.99 34.86 L65.46 36.63 L67.07 38.21 L68.81 39.59 L70.69 40.78 L72.71 41.77 L74.87 42.57 L77.19 43.3 L79.12 44.1 L80.44 45.09 L81.15 46.28 L81.26 47.66 L80.77 49.24 L79.67 51.01 L78.38 52.74 L77.1 54.65 L76.05 56.63 L75.23 58.69 L74.65 60.83 L74.3 63.05 L74.18 65.35 L74.18 67.34 L73.99 69.42 L73.44 70.99 L72.51 72.06 L71.21 72.62 L69.54 72.68 L67.5 72.23 L65.18 71.5 L62.95 70.92 L60.73 70.57 L58.5 70.45 L56.27 70.57 L54.05 70.92 L51.82 71.5 L49.5 72.23 L47.46 72.68 L45.79 72.62 L44.49 72.06 L43.56 70.99 L43.01 69.42 L42.82 67.34 L42.82 65.35 L42.7 63.05 L42.35 60.83 L41.77 58.69 L40.95 56.63 L39.9 54.65 L38.62 52.74 L37.33 51.01 L36.23 49.24 L35.74 47.66 L35.85 46.28 L36.56 45.09 L37.88 44.1 L39.81 43.3 L42.13 42.57 L44.29 41.77 L46.31 40.78 L48.19 39.59 L49.93 38.21 L51.54 36.63 L53.01 34.86 Z" fill="#B04400" stroke="#B04400" stroke-width="2.8" stroke-linejoin="round" transform="translate(0 0.6)"/>
<path d="M54.3 33.13 L55.7 31.57 L57.1 30.64 L58.5 30.33 L59.9 30.64 L61.3 31.57 L62.7 33.13 L63.99 34.86 L65.46 36.63 L67.07 38.21 L68.81 39.59 L70.69 40.78 L72.71 41.77 L74.87 42.57 L77.19 43.3 L79.12 44.1 L80.44 45.09 L81.15 46.28 L81.26 47.66 L80.77 49.24 L79.67 51.01 L78.38 52.74 L77.1 54.65 L76.05 56.63 L75.23 58.69 L74.65 60.83 L74.3 63.05 L74.18 65.35 L74.18 67.34 L73.99 69.42 L73.44 70.99 L72.51 72.06 L71.21 72.62 L69.54 72.68 L67.5 72.23 L65.18 71.5 L62.95 70.92 L60.73 70.57 L58.5 70.45 L56.27 70.57 L54.05 70.92 L51.82 71.5 L49.5 72.23 L47.46 72.68 L45.79 72.62 L44.49 72.06 L43.56 70.99 L43.01 69.42 L42.82 67.34 L42.82 65.35 L42.7 63.05 L42.35 60.83 L41.77 58.69 L40.95 56.63 L39.9 54.65 L38.62 52.74 L37.33 51.01 L36.23 49.24 L35.74 47.66 L35.85 46.28 L36.56 45.09 L37.88 44.1 L39.81 43.3 L42.13 42.57 L44.29 41.77 L46.31 40.78 L48.19 39.59 L49.93 38.21 L51.54 36.63 L53.01 34.86 Z" fill="#DC6E00" stroke="url(#l14)" stroke-width="2.8" stroke-linejoin="round"/>
<path d="M54.3 33.13 L55.7 31.57 L57.1 30.64 L58.5 30.33 L59.9 30.64 L61.3 31.57 L62.7 33.13 L63.99 34.86 L65.46 36.63 L67.07 38.21 L68.81 39.59 L70.69 40.78 L72.71 41.77 L74.87 42.57 L77.19 43.3 L79.12 44.1 L80.44 45.09 L81.15 46.28 L81.26 47.66 L80.77 49.24 L79.67 51.01 L78.38 52.74 L77.1 54.65 L76.05 56.63 L75.23 58.69 L74.65 60.83 L74.3 63.05 L74.18 65.35 L74.18 67.34 L73.99 69.42 L73.44 70.99 L72.51 72.06 L71.21 72.62 L69.54 72.68 L67.5 72.23 L65.18 71.5 L62.95 70.92 L60.73 70.57 L58.5 70.45 L56.27 70.57 L54.05 70.92 L51.82 71.5 L49.5 72.23 L47.46 72.68 L45.79 72.62 L44.49 72.06 L43.56 70.99 L43.01 69.42 L42.82 67.34 L42.82 65.35 L42.7 63.05 L42.35 60.83 L41.77 58.69 L40.95 56.63 L39.9 54.65 L38.62 52.74 L37.33 51.01 L36.23 49.24 L35.74 47.66 L35.85 46.28 L36.56 45.09 L37.88 44.1 L39.81 43.3 L42.13 42.57 L44.29 41.77 L46.31 40.78 L48.19 39.59 L49.93 38.21 L51.54 36.63 L53.01 34.86 Z" fill="url(#l15)"/>
<g clip-path="url(#c16)"><path d="M54.3 33.13 L55.7 31.57 L57.1 30.64 L58.5 30.33 L59.9 30.64 L61.3 31.57 L62.7 33.13 L63.99 34.86 L65.46 36.63 L67.07 38.21 L68.81 39.59 L70.69 40.78 L72.71 41.77 L74.87 42.57 L77.19 43.3 L79.12 44.1 L80.44 45.09 L81.15 46.28 L81.26 47.66 L80.77 49.24 L79.67 51.01 L78.38 52.74 L77.1 54.65 L76.05 56.63 L75.23 58.69 L74.65 60.83 L74.3 63.05 L74.18 65.35 L74.18 67.34 L73.99 69.42 L73.44 70.99 L72.51 72.06 L71.21 72.62 L69.54 72.68 L67.5 72.23 L65.18 71.5 L62.95 70.92 L60.73 70.57 L58.5 70.45 L56.27 70.57 L54.05 70.92 L51.82 71.5 L49.5 72.23 L47.46 72.68 L45.79 72.62 L44.49 72.06 L43.56 70.99 L43.01 69.42 L42.82 67.34 L42.82 65.35 L42.7 63.05 L42.35 60.83 L41.77 58.69 L40.95 56.63 L39.9 54.65 L38.62 52.74 L37.33 51.01 L36.23 49.24 L35.74 47.66 L35.85 46.28 L36.56 45.09 L37.88 44.1 L39.81 43.3 L42.13 42.57 L44.29 41.77 L46.31 40.78 L48.19 39.59 L49.93 38.21 L51.54 36.63 L53.01 34.86 Z" fill="none" stroke="#FFF8E8" stroke-opacity="0.9" stroke-width="2.2" transform="translate(0.6 1.6)" filter="url(#f17)"/><path d="M54.3 33.13 L55.7 31.57 L57.1 30.64 L58.5 30.33 L59.9 30.64 L61.3 31.57 L62.7 33.13 L63.99 34.86 L65.46 36.63 L67.07 38.21 L68.81 39.59 L70.69 40.78 L72.71 41.77 L74.87 42.57 L77.19 43.3 L79.12 44.1 L80.44 45.09 L81.15 46.28 L81.26 47.66 L80.77 49.24 L79.67 51.01 L78.38 52.74 L77.1 54.65 L76.05 56.63 L75.23 58.69 L74.65 60.83 L74.3 63.05 L74.18 65.35 L74.18 67.34 L73.99 69.42 L73.44 70.99 L72.51 72.06 L71.21 72.62 L69.54 72.68 L67.5 72.23 L65.18 71.5 L62.95 70.92 L60.73 70.57 L58.5 70.45 L56.27 70.57 L54.05 70.92 L51.82 71.5 L49.5 72.23 L47.46 72.68 L45.79 72.62 L44.49 72.06 L43.56 70.99 L43.01 69.42 L42.82 67.34 L42.82 65.35 L42.7 63.05 L42.35 60.83 L41.77 58.69 L40.95 56.63 L39.9 54.65 L38.62 52.74 L37.33 51.01 L36.23 49.24 L35.74 47.66 L35.85 46.28 L36.56 45.09 L37.88 44.1 L39.81 43.3 L42.13 42.57 L44.29 41.77 L46.31 40.78 L48.19 39.59 L49.93 38.21 L51.54 36.63 L53.01 34.86 Z" fill="none" stroke="#E9A400" stroke-opacity="0.55" stroke-width="2.4" transform="translate(0 -1.8)" filter="url(#f18)"/></g>
</svg>
