<svg xmlns="http://www.w3.org/2000/svg" width="48" height="51" viewBox="0 0 108 114">
<defs><linearGradient id="l1" gradientUnits="userSpaceOnUse" x1="0" y1="4" x2="0" y2="15"><stop offset="0" stop-color="#FFE060"/><stop offset="1" stop-color="#E8A00A"/></linearGradient><linearGradient id="l2" gradientUnits="userSpaceOnUse" x1="0" y1="48.88" x2="0" y2="90.88"><stop offset="0" stop-color="#F4B400"/><stop offset="1" stop-color="#E89A00"/></linearGradient></defs>
<path d="M28 8 L80 8 L76 48 L32 48 Z" fill="#BC3021" stroke="#76150C" stroke-width="2" stroke-linejoin="round"/>
<path d="M46 8 L62 8 L61 47 L47 47 Z" fill="#FFFFFF"/>
<path d="M24 7 L24.1 6.02 L24.38 5.09 L24.84 4.22 L25.46 3.46 L26.22 2.84 L27.09 2.38 L28.02 2.1 L29 2 L79 2 L79.98 2.1 L80.91 2.38 L81.78 2.84 L82.54 3.46 L83.16 4.22 L83.62 5.09 L83.9 6.02 L84 7 L84 9 L83.9 9.98 L83.62 10.91 L83.16 11.78 L82.54 12.54 L81.78 13.16 L80.91 13.62 L79.98 13.9 L79 14 L29 14 L28.02 13.9 L27.09 13.62 L26.22 13.16 L25.46 12.54 L24.84 11.78 L24.38 10.91 L24.1 9.98 L24 9 Z" fill="url(#l1)" stroke="#9A5202" stroke-width="2"/>
<g transform="translate(13.5 31) scale(0.9)"><g transform="translate(0 0)">
<defs><filter id="mdf1" filterUnits="userSpaceOnUse" x="-270" y="-270" width="720" height="720"><feGaussianBlur stdDeviation="1.6"/></filter><linearGradient id="mdl2" gradientUnits="userSpaceOnUse" x1="0" y1="7.5" x2="0" y2="86.5"><stop offset="0" stop-color="#F4C200"/><stop offset="0.7" stop-color="#E49000"/><stop offset="1" stop-color="#C46200"/></linearGradient><linearGradient id="mdl3" gradientUnits="userSpaceOnUse" x1="0" y1="3.7" x2="0" y2="82.7"><stop offset="0" stop-color="#FFF53A"/><stop offset="0.2" stop-color="#FFEC00"/><stop offset="0.6" stop-color="#F9D600"/><stop offset="0.9" stop-color="#F4C400"/><stop offset="1" stop-color="#F2BC00"/></linearGradient><filter id="mdf4" filterUnits="userSpaceOnUse" x="-270" y="-270" width="720" height="720"><feGaussianBlur stdDeviation="0.5"/></filter><filter id="mdf5" filterUnits="userSpaceOnUse" x="-270" y="-270" width="720" height="720"><feGaussianBlur stdDeviation="0.5"/></filter><linearGradient id="mdl6" gradientUnits="userSpaceOnUse" x1="0" y1="17.75" x2="0" y2="68.65"><stop offset="0" stop-color="#EA9C00"/><stop offset="0.3" stop-color="#F0A800"/><stop offset="0.7" stop-color="#EDA400"/><stop offset="1" stop-color="#E28E00"/></linearGradient><clipPath id="mdc7"><path d="M19.55 43.2A25.45 25.45 0 1 0 70.45 43.2A25.45 25.45 0 1 0 19.55 43.2Z" clip-rule="nonzero"/></clipPath><filter id="mdf8" filterUnits="userSpaceOnUse" x="-270" y="-270" width="720" height="720"><feGaussianBlur stdDeviation="0.9"/></filter><linearGradient id="mdl9" gradientUnits="userSpaceOnUse" x1="0" y1="25.2" x2="0" y2="59.2"><stop offset="0" stop-color="#FFF45A"/><stop offset="0.35" stop-color="#FEE600"/><stop offset="1" stop-color="#F8D000"/></linearGradient><clipPath id="mdc10"><path d="M43.05 29.32 L43.7 28.28 L44.35 27.67 L45 27.46 L45.65 27.67 L46.3 28.28 L46.95 29.32 L48.69 32.62 L49.4 33.77 L50.23 34.76 L51.19 35.58 L52.27 36.24 L53.46 36.72 L54.78 37.04 L58.45 37.67 L59.64 37.97 L60.43 38.4 L60.83 38.96 L60.83 39.64 L60.44 40.45 L59.66 41.39 L57.06 44.06 L56.18 45.09 L55.5 46.19 L55.01 47.35 L54.72 48.58 L54.63 49.87 L54.73 51.22 L55.27 54.91 L55.35 56.13 L55.19 57.01 L54.78 57.56 L54.13 57.78 L53.24 57.66 L52.11 57.21 L48.77 55.56 L47.51 55.04 L46.26 54.73 L45 54.63 L43.74 54.73 L42.49 55.04 L41.23 55.56 L37.89 57.21 L36.76 57.66 L35.87 57.78 L35.22 57.56 L34.81 57.01 L34.65 56.13 L34.73 54.91 L35.27 51.22 L35.37 49.87 L35.28 48.58 L34.99 47.35 L34.5 46.19 L33.82 45.09 L32.94 44.06 L30.34 41.39 L29.56 40.45 L29.17 39.64 L29.17 38.96 L29.57 38.4 L30.36 37.97 L31.55 37.67 L35.22 37.04 L36.54 36.72 L37.73 36.24 L38.81 35.58 L39.77 34.76 L40.6 33.77 L41.31 32.62 Z" clip-rule="nonzero"/></clipPath><filter id="mdf11" filterUnits="userSpaceOnUse" x="-270" y="-270" width="720" height="720"><feGaussianBlur stdDeviation="0.5"/></filter></defs>
<path d="M5.5 48.5A39.5 39.5 0 1 0 84.5 48.5A39.5 39.5 0 1 0 5.5 48.5Z" fill="#5C3919" fill-opacity="0.3" filter="url(#mdf1)"/>
<path d="M5.5 47A39.5 39.5 0 1 0 84.5 47A39.5 39.5 0 1 0 5.5 47Z" fill="url(#mdl2)" stroke="#945E0E" stroke-width="1.4"/>
<path d="M5.5 43.2A39.5 39.5 0 1 0 84.5 43.2A39.5 39.5 0 1 0 5.5 43.2Z" fill="url(#mdl3)" stroke="#A8622A" stroke-width="1.2"/>
<path d="M73.27 66.92A36.9 36.9 0 0 1 16.73 66.92" fill="none" stroke="#FFF08A" stroke-opacity="0.95" stroke-width="2.4" stroke-linecap="round" filter="url(#mdf4)"/>
<path d="M10.29 31.92A36.5 36.5 0 0 1 32.52 8.9" fill="none" stroke="#FFFBF2" stroke-opacity="0.95" stroke-width="2.4" stroke-linecap="round" filter="url(#mdf5)"/>
<path d="M70.85 58.12A29.85 29.85 0 0 1 19.15 58.12" fill="none" stroke="#FFF7A0" stroke-opacity="0.9" stroke-width="1.8" stroke-linecap="round"/>
<path d="M17.35 43.2A27.65 27.65 0 1 0 72.65 43.2A27.65 27.65 0 1 0 17.35 43.2Z" fill="#D06200"/>
<path d="M19.55 43.2A25.45 25.45 0 1 0 70.45 43.2A25.45 25.45 0 1 0 19.55 43.2Z" fill="url(#mdl6)"/>
<g clip-path="url(#mdc7)"><path d="M17.15 45.8A27.85 27.85 0 1 0 72.85 45.8A27.85 27.85 0 1 0 17.15 45.8Z" fill="none" stroke="#C86A00" stroke-opacity="0.6" stroke-width="3.4" filter="url(#mdf8)"/></g>
<path d="M43.05 29.32 L43.7 28.28 L44.35 27.67 L45 27.46 L45.65 27.67 L46.3 28.28 L46.95 29.32 L48.69 32.62 L49.4 33.77 L50.23 34.76 L51.19 35.58 L52.27 36.24 L53.46 36.72 L54.78 37.04 L58.45 37.67 L59.64 37.97 L60.43 38.4 L60.83 38.96 L60.83 39.64 L60.44 40.45 L59.66 41.39 L57.06 44.06 L56.18 45.09 L55.5 46.19 L55.01 47.35 L54.72 48.58 L54.63 49.87 L54.73 51.22 L55.27 54.91 L55.35 56.13 L55.19 57.01 L54.78 57.56 L54.13 57.78 L53.24 57.66 L52.11 57.21 L48.77 55.56 L47.51 55.04 L46.26 54.73 L45 54.63 L43.74 54.73 L42.49 55.04 L41.23 55.56 L37.89 57.21 L36.76 57.66 L35.87 57.78 L35.22 57.56 L34.81 57.01 L34.65 56.13 L34.73 54.91 L35.27 51.22 L35.37 49.87 L35.28 48.58 L34.99 47.35 L34.5 46.19 L33.82 45.09 L32.94 44.06 L30.34 41.39 L29.56 40.45 L29.17 39.64 L29.17 38.96 L29.57 38.4 L30.36 37.97 L31.55 37.67 L35.22 37.04 L36.54 36.72 L37.73 36.24 L38.81 35.58 L39.77 34.76 L40.6 33.77 L41.31 32.62 Z" fill="#C45400" stroke="#C45400" stroke-width="3.2" stroke-linejoin="round" transform="translate(0.7 1.5)"/>
<path d="M43.05 29.32 L43.7 28.28 L44.35 27.67 L45 27.46 L45.65 27.67 L46.3 28.28 L46.95 29.32 L48.69 32.62 L49.4 33.77 L50.23 34.76 L51.19 35.58 L52.27 36.24 L53.46 36.72 L54.78 37.04 L58.45 37.67 L59.64 37.97 L60.43 38.4 L60.83 38.96 L60.83 39.64 L60.44 40.45 L59.66 41.39 L57.06 44.06 L56.18 45.09 L55.5 46.19 L55.01 47.35 L54.72 48.58 L54.63 49.87 L54.73 51.22 L55.27 54.91 L55.35 56.13 L55.19 57.01 L54.78 57.56 L54.13 57.78 L53.24 57.66 L52.11 57.21 L48.77 55.56 L47.51 55.04 L46.26 54.73 L45 54.63 L43.74 54.73 L42.49 55.04 L41.23 55.56 L37.89 57.21 L36.76 57.66 L35.87 57.78 L35.22 57.56 L34.81 57.01 L34.65 56.13 L34.73 54.91 L35.27 51.22 L35.37 49.87 L35.28 48.58 L34.99 47.35 L34.5 46.19 L33.82 45.09 L32.94 44.06 L30.34 41.39 L29.56 40.45 L29.17 39.64 L29.17 38.96 L29.57 38.4 L30.36 37.97 L31.55 37.67 L35.22 37.04 L36.54 36.72 L37.73 36.24 L38.81 35.58 L39.77 34.76 L40.6 33.77 L41.31 32.62 Z" fill="none" stroke="#D66A00" stroke-width="3.2" stroke-linejoin="round"/>
<path d="M43.05 29.32 L43.7 28.28 L44.35 27.67 L45 27.46 L45.65 27.67 L46.3 28.28 L46.95 29.32 L48.69 32.62 L49.4 33.77 L50.23 34.76 L51.19 35.58 L52.27 36.24 L53.46 36.72 L54.78 37.04 L58.45 37.67 L59.64 37.97 L60.43 38.4 L60.83 38.96 L60.83 39.64 L60.44 40.45 L59.66 41.39 L57.06 44.06 L56.18 45.09 L55.5 46.19 L55.01 47.35 L54.72 48.58 L54.63 49.87 L54.73 51.22 L55.27 54.91 L55.35 56.13 L55.19 57.01 L54.78 57.56 L54.13 57.78 L53.24 57.66 L52.11 57.21 L48.77 55.56 L47.51 55.04 L46.26 54.73 L45 54.63 L43.74 54.73 L42.49 55.04 L41.23 55.56 L37.89 57.21 L36.76 57.66 L35.87 57.78 L35.22 57.56 L34.81 57.01 L34.65 56.13 L34.73 54.91 L35.27 51.22 L35.37 49.87 L35.28 48.58 L34.99 47.35 L34.5 46.19 L33.82 45.09 L32.94 44.06 L30.34 41.39 L29.56 40.45 L29.17 39.64 L29.17 38.96 L29.57 38.4 L30.36 37.97 L31.55 37.67 L35.22 37.04 L36.54 36.72 L37.73 36.24 L38.81 35.58 L39.77 34.76 L40.6 33.77 L41.31 32.62 Z" fill="url(#mdl9)"/>
<g clip-path="url(#mdc10)"><path d="M43.05 29.32 L43.7 28.28 L44.35 27.67 L45 27.46 L45.65 27.67 L46.3 28.28 L46.95 29.32 L48.69 32.62 L49.4 33.77 L50.23 34.76 L51.19 35.58 L52.27 36.24 L53.46 36.72 L54.78 37.04 L58.45 37.67 L59.64 37.97 L60.43 38.4 L60.83 38.96 L60.83 39.64 L60.44 40.45 L59.66 41.39 L57.06 44.06 L56.18 45.09 L55.5 46.19 L55.01 47.35 L54.72 48.58 L54.63 49.87 L54.73 51.22 L55.27 54.91 L55.35 56.13 L55.19 57.01 L54.78 57.56 L54.13 57.78 L53.24 57.66 L52.11 57.21 L48.77 55.56 L47.51 55.04 L46.26 54.73 L45 54.63 L43.74 54.73 L42.49 55.04 L41.23 55.56 L37.89 57.21 L36.76 57.66 L35.87 57.78 L35.22 57.56 L34.81 57.01 L34.65 56.13 L34.73 54.91 L35.27 51.22 L35.37 49.87 L35.28 48.58 L34.99 47.35 L34.5 46.19 L33.82 45.09 L32.94 44.06 L30.34 41.39 L29.56 40.45 L29.17 39.64 L29.17 38.96 L29.57 38.4 L30.36 37.97 L31.55 37.67 L35.22 37.04 L36.54 36.72 L37.73 36.24 L38.81 35.58 L39.77 34.76 L40.6 33.77 L41.31 32.62 Z" fill="none" stroke="#FFFAEC" stroke-opacity="0.85" stroke-width="2" transform="translate(1 1.4)" filter="url(#mdf11)"/></g>
</g></g>
<path d="M33 70.38A21 21 0 1 0 75 70.38A21 21 0 1 0 33 70.38Z" fill="url(#l2)"/>
<path d="M158 0Q115 0 92.5 22.5Q70 45 70 87Q70 129 92.5 151.5Q115 174 158 174H235V536H332L188 447Q157 428 130.5 432.0Q104 436 86.0 455.0Q68 474 62.0 500.5Q56 527 66.5 554.0Q77 581 108 600L247 687Q270 702 295.5 708.5Q321 715 351 715Q399 715 424.5 691.0Q450 667 450 624V174H517Q560 174 582.5 151.5Q605 129 605 87Q605 45 582.5 22.5Q560 0 517 0Z" transform="translate(54 84.38) scale(0.04 -0.04) translate(-332.41 0)" fill="#C46200" stroke="#C46200" stroke-width="40" stroke-linejoin="round"/>
<g transform="translate(-1 -1.4)"><path d="M158 0Q115 0 92.5 22.5Q70 45 70 87Q70 129 92.5 151.5Q115 174 158 174H235V536H332L188 447Q157 428 130.5 432.0Q104 436 86.0 455.0Q68 474 62.0 500.5Q56 527 66.5 554.0Q77 581 108 600L247 687Q270 702 295.5 708.5Q321 715 351 715Q399 715 424.5 691.0Q450 667 450 624V174H517Q560 174 582.5 151.5Q605 129 605 87Q605 45 582.5 22.5Q560 0 517 0Z" transform="translate(54 84.38) scale(0.04 -0.04) translate(-332.41 0)" fill="#FFE34A" stroke="#FFE34A" stroke-width="16" stroke-linejoin="round"/></g>
</svg>
